<svg width="68" height="68" fill="none" xmlns="http://www.w3.org/2000/svg"><path d="M61.818 65H40.703l1.181-3.296 5.877-16.395a65.887 65.887 0 0111.263 4.512C62.722 51.72 65 55.448 65 59.556v2.262A3.189 3.189 0 0161.818 65zm-24.956 0h-5.724l.744-3.72 1.918-9.592.156-.781-.252-.756-2.323-6.97h5.238l-2.323 6.97-.252.756.156.78 1.918 9.593.744 3.72zm-10.746-3.296L27.297 65H6.183A3.189 3.189 0 013 61.818v-2.262c0-4.108 2.279-7.837 5.977-9.736a65.888 65.888 0 0111.262-4.51l5.877 16.394zm23.43-43.159c0 8.586-6.96 15.546-15.546 15.546-8.585 0-15.545-6.96-15.545-15.546C18.455 9.96 25.415 3 34 3c8.586 0 15.545 6.96 15.545 15.545z" stroke="#fff" stroke-width="6"/></svg>