<svg width="49" height="16" fill="none" xmlns="http://www.w3.org/2000/svg"><path d="M14.436.304L10.32 10.718 8.65 1.86C8.46.873 7.683.304 6.83.304H.094L0 .74c1.385.303 2.96.797 3.908 1.309.588.322.74.588.948 1.347l3.15 12.217h4.192L18.61.303h-4.174zm5.862 0l-3.263 15.29H21L24.282.284h-3.984v.02zm22.707 4.135l1.195 5.748h-3.28l2.086-5.748zM42.417.304a1.8 1.8 0 00-1.688 1.119l-5.938 14.19h4.155l.835-2.296h5.084l.474 2.296H49L45.794.303h-3.377zm-17.073 4.78c-.019 2.2 1.973 3.434 3.472 4.173 1.536.76 2.068 1.234 2.049 1.898-.02 1.024-1.234 1.48-2.372 1.498-1.992.038-3.149-.531-4.06-.967l-.72 3.338c.93.418 2.637.797 4.4.816 4.155 0 6.887-2.049 6.887-5.236.019-4.04-5.577-4.268-5.54-6.07.02-.55.532-1.138 1.69-1.29.568-.076 2.124-.133 3.907.683l.702-3.244C34.81.34 33.577 0 32.059 0c-3.945.019-6.696 2.106-6.715 5.084z" fill="#FAFAFA"/></svg>