<svg width="49" height="30" fill="none" xmlns="http://www.w3.org/2000/svg"><path d="M30.822 26.795H17.698V3.209h13.124v23.586z" fill="#FF5F00"/><path d="M18.539 15c0-4.784 2.24-9.046 5.729-11.793A14.934 14.934 0 0014.998 0C6.715 0 0 6.716 0 15c0 8.284 6.715 15 14.998 15 3.499 0 6.719-1.199 9.27-3.207A14.975 14.975 0 0118.539 15z" fill="#EB001B"/><path d="M48.522 15c0 8.284-6.715 15-14.998 15a14.939 14.939 0 01-9.27-3.207A14.973 14.973 0 0029.982 15c0-4.784-2.24-9.046-5.73-11.793A14.939 14.939 0 0133.523 0c8.284 0 14.999 6.716 14.999 15z" fill="#F79E1B"/></svg>