<svg width="16" height="15" fill="none" xmlns="http://www.w3.org/2000/svg"><path d="M3.753 9.384c.012.012.024.037.012.049l-.628 3.688c-.086.5-.012.916.197 1.173.148.17.357.256.616.256.246 0 .542-.085.85-.244l3.337-1.747c.012-.012.037-.012.062 0l3.337 1.735c.308.158.591.244.838.244.258 0 .467-.086.615-.257.21-.244.284-.66.185-1.172l-.653-3.688c0-.025 0-.037.013-.05l2.697-2.613c.443-.427.628-.867.505-1.22-.124-.367-.53-.611-1.133-.697l-3.732-.525c-.025 0-.037-.012-.05-.037L9.148.933c-.271-.55-.64-.855-1.022-.855s-.74.305-1.022.855L5.44 4.291a.15.15 0 01-.05.037l-3.73.55c-.617.085-1.01.342-1.134.696-.123.354.062.781.493 1.209h.012c.012 0 .012.012.025.024l2.697 2.577z" fill="#FFC52F"/></svg>