<svg width="13" height="13" viewBox="0 0 13 13" fill="none" xmlns="http://www.w3.org/2000/svg">
<path d="M5.99832 4.56149L10.3446 0.215249C10.6716 -0.111813 11.2533 -0.0603676 11.6439 0.330157C12.0344 0.720681 12.0858 1.3024 11.7588 1.62946L7.41253 5.9757L11.969 10.5321C12.296 10.8592 12.2446 11.4409 11.854 11.8314C11.4635 12.222 10.8818 12.2734 10.5547 11.9463L5.99832 7.38992L1.62946 11.7588C1.3024 12.0858 0.720681 12.0344 0.330157 11.6439C-0.0603675 11.2533 -0.111814 10.6716 0.215249 10.3446L4.5841 5.9757L0.425429 1.81703C0.0983661 1.48997 0.149812 0.908246 0.540336 0.517722C0.930861 0.127198 1.51258 0.0757516 1.83964 0.402814L5.99832 4.56149Z" fill="#3D3D3D"/>
</svg>
