<svg width="68" height="68" viewBox="0 0 68 68" fill="none" xmlns="http://www.w3.org/2000/svg">
<path d="M61.8181 65H40.7025L41.8841 61.7038L47.7606 45.3094C52.4961 46.7033 56.4582 48.5046 59.0242 49.8208C62.7216 51.7201 64.9999 55.4483 65 59.5557V61.8181C65 63.5702 63.5697 65 61.8181 65ZM36.8621 65H31.1379L31.8818 61.2797L33.7996 51.6878L33.9558 50.9066L33.7039 50.1509L31.3808 43.1817H36.6192L34.2961 50.1509L34.0442 50.9066L34.2004 51.6878L36.1182 61.2797L36.8621 65ZM26.1159 61.7038L27.2975 65H6.18186C4.43039 65 3 63.5701 3 61.8181V59.5557C3 55.4478 5.27877 51.7192 8.97705 49.8202C11.5429 48.5041 15.5045 46.7031 20.2394 45.3093L26.1159 61.7038ZM49.5454 18.5454C49.5454 27.1309 42.5855 34.0909 34 34.0909C25.4145 34.0909 18.4546 27.1309 18.4546 18.5454C18.4546 9.95992 25.4145 3 34 3C42.5855 3 49.5454 9.95992 49.5454 18.5454Z" stroke="white" stroke-width="6"/>
</svg>
