<svg width="49" height="16" viewBox="0 0 49 16" fill="none" xmlns="http://www.w3.org/2000/svg">
<path d="M14.4363 0.303523L10.3198 10.7182L8.65041 1.85908C8.4607 0.872629 7.68293 0.303523 6.82927 0.303523H0.0948509L0 0.739838C1.38482 1.04336 2.95935 1.53659 3.90786 2.04878C4.49593 2.37127 4.6477 2.63686 4.85637 3.39566L8.00542 15.6125H12.1978L18.6098 0.303523H14.4363ZM20.2981 0.303523L17.0352 15.5935H21L24.2818 0.284553H20.2981V0.303523ZM43.0054 4.43902L44.2005 10.187H40.9187L43.0054 4.43902ZM42.4173 0.303523C41.6585 0.303523 41.0135 0.739838 40.729 1.42276L34.7913 15.6125H38.9458L39.7805 13.3171H44.8645L45.3388 15.6125H49L45.794 0.303523H42.4173ZM25.3442 5.08401C25.3252 7.28455 27.3171 8.51762 28.8157 9.25745C30.3523 10.0163 30.8835 10.4905 30.8645 11.1545C30.8455 12.1789 29.6314 12.6341 28.4932 12.6531C26.5014 12.6911 25.3442 12.122 24.4336 11.6856L23.7127 15.0244C24.6423 15.4417 26.3496 15.8211 28.1138 15.8401C32.2683 15.8401 35 13.7913 35 10.6043C35.019 6.56369 29.4228 6.33604 29.4607 4.53388C29.4797 3.98374 29.9919 3.39566 31.1491 3.2439C31.7182 3.16802 33.2737 3.11111 35.0569 3.92683L35.7588 0.682927C34.8103 0.341463 33.5772 0 32.0596 0C28.1138 0.0189702 25.3631 2.10569 25.3442 5.08401Z" fill="#FAFAFA"/>
</svg>
