<svg width="49" height="30" viewBox="0 0 49 30" fill="none" xmlns="http://www.w3.org/2000/svg">
<path d="M30.8222 26.7947H17.6984V3.20898H30.8222V26.7947Z" fill="#FF5F00"/>
<path d="M18.539 15C18.539 10.2155 20.7791 5.95365 24.2676 3.20713C21.7166 1.19874 18.497 0 14.9981 0C6.71467 0 0 6.71562 0 15C0 23.2844 6.71467 30 14.9981 30C18.497 30 21.7166 28.8013 24.2676 26.7929C20.7791 24.0463 18.539 19.7845 18.539 15Z" fill="#EB001B"/>
<path d="M48.5218 15C48.5218 23.2844 41.8072 30 33.5238 30C30.0248 30 26.8053 28.8013 24.2533 26.7929C27.7427 24.0463 29.9828 19.7845 29.9828 15C29.9828 10.2155 27.7427 5.95365 24.2533 3.20713C26.8053 1.19874 30.0248 0 33.5238 0C41.8072 0 48.5218 6.71562 48.5218 15Z" fill="#F79E1B"/>
</svg>
