<svg width="16" height="15" viewBox="0 0 16 15" fill="none" xmlns="http://www.w3.org/2000/svg">
<path d="M3.75282 9.38415C3.76514 9.39636 3.77745 9.42078 3.76514 9.433L3.13706 13.1212C3.05085 13.6219 3.12474 14.0372 3.3341 14.2936C3.48188 14.4646 3.69124 14.5501 3.94986 14.5501C4.19617 14.5501 4.49173 14.4646 4.79962 14.3058L8.13705 12.5594C8.14937 12.5472 8.174 12.5472 8.19863 12.5594L11.5361 14.2936C11.8439 14.4524 12.1272 14.5379 12.3735 14.5379C12.6321 14.5379 12.8415 14.4524 12.9893 14.2814C13.1986 14.0372 13.2725 13.6219 13.174 13.109L12.5213 9.42078C12.5213 9.39636 12.5213 9.38415 12.5336 9.37193L15.2306 6.75843C15.674 6.33099 15.8587 5.89134 15.7356 5.53717C15.6124 5.17079 15.206 4.92654 14.6026 4.84105L10.871 4.31591C10.8464 4.31591 10.8341 4.30369 10.8218 4.27927L9.1469 0.933009C8.87597 0.383441 8.50651 0.078125 8.12474 0.078125C7.74296 0.078125 7.38582 0.383441 7.10257 0.933009L5.44001 4.29148C5.42769 4.30369 5.41538 4.31591 5.39075 4.32812L1.65923 4.87769C1.04346 4.96318 0.649376 5.21964 0.526223 5.57381C0.403071 5.92797 0.5878 6.35542 1.01883 6.78286H1.03115C1.04346 6.78286 1.04346 6.79507 1.05578 6.80728L3.75282 9.38415Z" fill="#FFC52F"/>
</svg>
